# xmcd
#
# Track frame offsets: 
#        150
#        21785
#        37426
#        56430
#        70551
#        90095
#        110194
#        126791
#        143860
#        160076
#        179581
#        200305
#        219868
#        240582
#
# Disc length: 3463 seconds
#
# Revision: 0
# Processed by: cddbd v1.5.2PL0 Copyright (c) Steve Scherf et al.
# Submitted via: ExactAudioCopyFreeDBPlugin 1.0
#
DISCID=bf0d850e
DTITLE=樊桐舟 - DTS51绝色II
DYEAR=2000
DGENRE=DTS
TTITLE0=黑鸭子樊桐舟 - 不管有多苦
TTITLE1=黑鸭子樊桐舟 - 男人的好
TTITLE2=黑鸭子樊桐舟 - 你是我一生最爱的人
TTITLE3=黑鸭子樊桐舟 - 我说我爱你
TTITLE4=黑鸭子樊桐舟 - 天涯
TTITLE5=黑鸭子樊桐舟 - 比我幸福
TTITLE6=黑鸭子樊桐舟 - 你要我等你多久
TTITLE7=黑鸭子樊桐舟 - 分飞
TTITLE8=黑鸭子樊桐舟 - 别哭我的爱人
TTITLE9=黑鸭子樊桐舟 - 一了百了
TTITLE10=黑鸭子樊桐舟 - 亲爱的你怎么不在我身边
TTITLE11=黑鸭子樊桐舟 - 一生爱你千百回
TTITLE12=黑鸭子樊桐舟 - 爱你不是两三天
TTITLE13=黑鸭子樊桐舟 - 曾经最美
EXTD=
EXTT0=
EXTT1=
EXTT2=
EXTT3=
EXTT4=
EXTT5=
EXTT6=
EXTT7=
EXTT8=
EXTT9=
EXTT10=
EXTT11=
EXTT12=
EXTT13=
PLAYORDER=
